<svg xmlns="http://www.w3.org/2000/svg" xmlns:xlink="http://www.w3.org/1999/xlink" viewBox="0 0 239.65488 41.578693"
    role="img" aria-labelledby="weave-logotype-title">
    <title id="weave-logotype-title">「weave」のロゴタイプ</title>
    <g fill="currentColor" stroke="none">
        <path id="w"
            d="M 0 2.0077 l 8.6964 0 c 0.9709 3.7533 1.5446 7.336 2.8244 10.6451 c 2.9279 7.5698 6.201 15.0059 9.6964 23.363 c 2.4318 -5.7539 4.5357 -10.6825 6.5747 -15.6375 c 0.1914 -0.4649 0.1369 -1.1699 -0.0751 -1.6415 c -2.4358 -5.4143 -4.9242 -10.8048 -7.3879 -16.1782 l 8.2159 0 c 0.6981 3.2001 0.9835 6.4051 2.1068 9.2827 c 2.8039 7.1812 5.9822 14.2166 9.0298 21.3022 c 0.3045 0.7086 0.743 1.3594 1.5 2.7219 c 3.6329 -11.7077 11.0495 -21.3829 11.3938 -33.7988 l 6.0568 0 c -8.4358 9.9599 -11.3882 22.2595 -16.5343 33.4704 c -0.6796 1.4805 0.1577 3.6577 0.2943 5.5367 c -4.8088 0.8452 -4.8049 0.8435 -6.7873 -3.8304 c -2.1955 -5.1755 -4.3992 -10.3472 -7.0215 -15.5601 c -1.7583 6.4745 -7.8482 11.5763 -5.6809 19.2476 c -4.5899 1.1944 -4.9219 1.0549 -6.7096 -3.1676 c -3.9044 -9.2232 -7.7291 -18.4814 -11.7321 -27.6616 c -1.1802 -2.707 -2.8482 -5.2014 -4.4606 -8.0939 z" />
        <path id="e"
            d="M 68.897 21.5922 c -0.6488 -0.5417 -1.2976 -1.0834 -2.2837 -1.9061 c 0.5122 6.7731 2.8796 12.4626 8.0945 16.7145 c 6.4468 5.2563 13.2629 4.7569 20.9434 -0.0502 c -7.0466 7.2083 -20.5132 6.7562 -27.7294 -0.0824 c -8.6875 -8.2328 -9.1795 -21.1626 -1.1316 -29.7429 c 7.6947 -8.2043 22.148 -8.7595 30.3924 -1.1676 c 6.7754 6.2398 5.8934 16.283 -2.1763 20.6941 c -7.4255 4.0588 -15.1795 4.5879 -22.5733 -0.2996 c -1.5072 -0.9961 -2.457 -2.8357 -3.662 -4.2847 c 3.5724 3.5674 7.5612 6.2357 12.8518 6.4268 c 6.4335 0.2325 10.9957 -2.4781 13.1296 -7.9645 c 2.2176 -5.7017 0.6455 -12.203 -3.871 -16.0099 c -4.6039 -3.8806 -12.252 -4.2576 -17.7715 -0.876 c -4.7036 2.8819 -7.0413 8.534 -5.7112 14.0251 c 0.3726 1.5387 0.992 3.0172 1.4983 4.5235 z" />
        <path id="a"
            d="M 113.932 26.2915 c 0.017 0.3572 0.007 1.0509 0.089 1.7341 c 0.636 5.3052 3.018 9.4927 8.228 11.3363 c 5.153 1.8231 9.871 0.5185 13.535 -3.4587 c 3.562 -3.8663 4.618 -8.3468 1.998 -13.3028 c -0.748 -1.415 -1.383 -2.9319 -1.791 -4.4758 c -0.877 -3.3178 -3.206 -4.8377 -6.299 -5.6376 c -8.905 -2.3022 -15.673 3.4696 -15.76 13.8045 z M 134.404 12.612 c -3.067 -4.3677 -5.622 -8.0053 -8.255 -11.7556 c 2.185 0 4.704 -0.249 7.13 0.12 c 0.995 0.1515 2.172 1.4772 2.611 2.5397 c 3.168 7.6654 5.999 15.4725 9.281 23.0859 c 2.019 4.6812 4.646 9.0992 7.074 13.7774 c -1.594 0 -3.848 0.1971 -6.034 -0.1015 c -0.821 -0.1124 -1.761 -1.25 -2.17 -2.1392 c -1.285 -2.7963 -2.344 -5.6968 -3.818 -9.372 c -1.514 5.4821 -3.843 9.4057 -8.474 11.4126 c -4.588 1.9881 -9.262 1.7318 -13.825 0.0245 c -7.577 -2.8343 -11.163 -10.5909 -8.803 -18.6755 c 2.563 -8.7837 10.984 -11.989 25.283 -8.9163 z" />
        <path id="v"
            d="M 185.858 1.9488 l 6.358 0 c -8.114 8.8188 -10.632 20.0148 -15.341 30.1312 c -2.148 4.6154 -2.015 4.6769 -0.878 9.112 c -3.4 0.9286 -5.577 0.3403 -7.041 -3.4824 c -3.502 -9.1428 -7.448 -18.119 -11.375 -27.0925 c -1.275 -2.914 -3.047 -5.6111 -4.659 -8.5304 l 8.576 0 c 1.234 4.2606 2.139 8.459 3.665 12.4186 c 2.681 6.956 5.742 13.7655 9.083 20.6931 c 3.93 -10.9616 11.242 -20.6421 11.612 -33.2496 z" />
        <use xlink:href="#e" transform="translate(137.935, 0)" />
    </g>
</svg>
